<?xml version="1.0" encoding="UTF-8" standalone="no"?>
<!DOCTYPE svg PUBLIC "-//W3C//DTD SVG 20010904//EN"
              "http://www.w3.org/TR/2001/REC-SVG-20010904/DTD/svg10.dtd">

<svg xmlns="http://www.w3.org/2000/svg"
     width="0.355556in" height="0.355556in"
     viewBox="0 0 32 32">
  <path id="Auswahl"
        fill="none" stroke="black" stroke-width="1"
        d="M 30.00,4.00
           C 30.00,4.00 30.00,28.00 30.00,28.00
             30.00,28.00 2.00,28.00 2.00,28.00
             2.00,28.00 2.00,4.00 2.00,4.00
             2.00,4.00 30.00,4.00 30.00,4.00 Z
           M 4.00,6.00
           C 4.00,6.00 4.00,22.00 4.00,22.00
             8.15,17.79 7.00,13.58 7.00,8.00
             7.00,8.00 9.00,8.00 9.00,8.00
             9.00,8.00 9.00,20.00 9.00,20.00
             9.00,20.00 14.00,20.00 14.00,20.00
             14.00,20.00 17.00,18.00 17.00,18.00
             18.98,23.25 22.73,20.75 23.00,13.00
             23.00,13.00 25.00,13.00 25.00,13.00
             25.00,13.00 25.00,18.00 25.00,18.00
             28.92,14.03 28.00,11.29 28.00,6.00
             28.00,6.00 4.00,6.00 4.00,6.00 Z
           M 25.00,24.00
           C 25.00,24.00 28.00,24.00 28.00,24.00
             28.00,24.00 28.00,18.00 28.00,18.00
             28.00,18.00 25.00,24.00 25.00,24.00 Z
           M 9.97,21.77
           C 9.19,22.60 9.17,23.54 9.00,24.00
             9.00,24.00 15.00,24.00 15.00,24.00
             14.21,21.83 12.40,19.19 9.97,21.77 Z
           M 17.00,22.00
           C 19.45,24.73 21.60,24.37 23.00,21.00
             23.00,21.00 17.00,22.00 17.00,22.00 Z" />
</svg>
